HIERARCHY
ROOT Hips
{
	OFFSET -14.64140 90.27770 -84.91600
	CHANNELS 6 Xposition Yposition Zposition Zrotation Xrotation Yrotation
	JOINT Spine
	{
		OFFSET 0.00000 13.20850 -1.60436
		CHANNELS 3 Zrotation Xrotation Yrotation
		JOINT Spine1
		{
			OFFSET 0.00000 8.61716 0.00000
			CHANNELS 3 Zrotation Xrotation Yrotation
			JOINT Spine2
			{
				OFFSET 0.00000 8.61717 0.00000
				CHANNELS 3 Zrotation Xrotation Yrotation
				JOINT Spine3
				{
					OFFSET 0.00000 8.61717 0.00000
					CHANNELS 3 Zrotation Xrotation Yrotation
					JOINT Neck
					{
						OFFSET 0.00000 11.07920 1.10792
						CHANNELS 3 Zrotation Xrotation Yrotation
						JOINT Neck1
						{
							OFFSET 0.00000 7.08032 0.00000
							CHANNELS 3 Zrotation Xrotation Yrotation
							JOINT Head
							{
								OFFSET 0.00000 7.08031 0.00000
								CHANNELS 3 Zrotation Xrotation Yrotation
								End site
								{
									OFFSET 0.00000 0.00000 0.00000
								}
							}
						}
					}
					JOINT RightShoulder
					{
						OFFSET -0.01000 7.91373 5.19711
						CHANNELS 3 Zrotation Xrotation Yrotation
						JOINT RightArm
						{
							OFFSET -18.41580 0.00000 0.00000
							CHANNELS 3 Zrotation Xrotation Yrotation
							JOINT RightForeArm
							{
								OFFSET -29.11090 0.00000 0.00000
								CHANNELS 3 Zrotation Xrotation Yrotation
								JOINT RightHand
								{
									OFFSET -24.65040 0.00000 0.00000
									CHANNELS 3 Zrotation Xrotation Yrotation
									JOINT RightHandThumb1
									{
										OFFSET -5.35114 -0.85590 3.97906
										CHANNELS 3 Zrotation Xrotation Yrotation
										JOINT RightHandThumb2
										{
											OFFSET -4.52789 0.00000 0.00000
											CHANNELS 3 Zrotation Xrotation Yrotation
											JOINT RightHandThumb3
											{
												OFFSET -2.46976 0.00000 0.00000
												CHANNELS 3 Zrotation Xrotation Yrotation
												End site
												{
													OFFSET 0.00000 0.00000 0.00000
												}
											}
										}
									}
									JOINT RightHandIndex1
									{
										OFFSET -14.26970 0.00000 2.88139
										CHANNELS 3 Zrotation Xrotation Yrotation
										JOINT RightHandIndex2
										{
											OFFSET -5.48836 0.00000 0.00000
											CHANNELS 3 Zrotation Xrotation Yrotation
											JOINT RightHandIndex3
											{
												OFFSET -3.01859 0.00000 0.00000
												CHANNELS 3 Zrotation Xrotation Yrotation
												End site
												{
													OFFSET 0.00000 0.00000 0.00000
												}
											}
										}
									}
									JOINT RightHandMiddle1
									{
										OFFSET -14.26970 0.00000 -0.09147
										CHANNELS 3 Zrotation Xrotation Yrotation
										JOINT RightHandMiddle2
										{
											OFFSET -6.17441 0.00000 0.00000
											CHANNELS 3 Zrotation Xrotation Yrotation
											JOINT RightHandMiddle3
											{
												OFFSET -3.56743 0.00000 0.00000
												CHANNELS 3 Zrotation Xrotation Yrotation
												End site
												{
													OFFSET 0.00000 0.00000 0.00000
												}
											}
										}
									}
									JOINT RightHandRing1
									{
										OFFSET -12.69180 0.00000 -3.06433
										CHANNELS 3 Zrotation Xrotation Yrotation
										JOINT RightHandRing2
										{
											OFFSET -5.62556 0.00000 0.00000
											CHANNELS 3 Zrotation Xrotation Yrotation
											JOINT RightHandRing3
											{
												OFFSET -3.56744 0.00000 0.00000
												CHANNELS 3 Zrotation Xrotation Yrotation
												End site
												{
													OFFSET 0.00000 0.00000 0.00000
												}
											}
										}
									}
									JOINT RightHandPinky1
									{
										OFFSET -11.11390 0.00000 -6.03719
										CHANNELS 3 Zrotation Xrotation Yrotation
										JOINT RightHandPinky2
										{
											OFFSET -4.52789 0.00000 0.00000
											CHANNELS 3 Zrotation Xrotation Yrotation
											JOINT RightHandPinky3
											{
												OFFSET -2.46976 0.00000 0.00000
												CHANNELS 3 Zrotation Xrotation Yrotation
												End site
												{
													OFFSET 0.00000 0.00000 0.00000
												}
											}
										}
									}
								}
							}
						}
					}
					JOINT LeftShoulder
					{
						OFFSET 0.01000 7.91373 5.19711
						CHANNELS 3 Zrotation Xrotation Yrotation
						JOINT LeftArm
						{
							OFFSET 18.41580 0.00000 0.00000
							CHANNELS 3 Zrotation Xrotation Yrotation
							JOINT LeftForeArm
							{
								OFFSET 29.11090 0.00000 0.00000
								CHANNELS 3 Zrotation Xrotation Yrotation
								JOINT LeftHand
								{
									OFFSET 24.65040 0.00000 0.00000
									CHANNELS 3 Zrotation Xrotation Yrotation
									JOINT LeftHandThumb1
									{
										OFFSET 5.35114 -0.85590 3.97906
										CHANNELS 3 Zrotation Xrotation Yrotation
										JOINT LeftHandThumb2
										{
											OFFSET 4.52789 0.00000 0.00000
											CHANNELS 3 Zrotation Xrotation Yrotation
											JOINT LeftHandThumb3
											{
												OFFSET 2.46977 0.00000 0.00000
												CHANNELS 3 Zrotation Xrotation Yrotation
												End site
												{
													OFFSET 0.00000 0.00000 0.00000
												}
											}
										}
									}
									JOINT LeftHandIndex1
									{
										OFFSET 14.26970 0.00000 2.88139
										CHANNELS 3 Zrotation Xrotation Yrotation
										JOINT LeftHandIndex2
										{
											OFFSET 5.48836 0.00000 0.00000
											CHANNELS 3 Zrotation Xrotation Yrotation
											JOINT LeftHandIndex3
											{
												OFFSET 3.01859 0.00000 0.00000
												CHANNELS 3 Zrotation Xrotation Yrotation
												End site
												{
													OFFSET 0.00000 0.00000 0.00000
												}
											}
										}
									}
									JOINT LeftHandMiddle1
									{
										OFFSET 14.26970 0.00000 -0.09147
										CHANNELS 3 Zrotation Xrotation Yrotation
										JOINT LeftHandMiddle2
										{
											OFFSET 6.17440 0.00000 0.00000
											CHANNELS 3 Zrotation Xrotation Yrotation
											JOINT LeftHandMiddle3
											{
												OFFSET 3.56744 0.00000 0.00000
												CHANNELS 3 Zrotation Xrotation Yrotation
												End site
												{
													OFFSET 0.00000 0.00000 0.00000
												}
											}
										}
									}
									JOINT LeftHandRing1
									{
										OFFSET 12.69180 0.00000 -3.06433
										CHANNELS 3 Zrotation Xrotation Yrotation
										JOINT LeftHandRing2
										{
											OFFSET 5.62556 0.00000 0.00000
											CHANNELS 3 Zrotation Xrotation Yrotation
											JOINT LeftHandRing3
											{
												OFFSET 3.56744 0.00000 0.00000
												CHANNELS 3 Zrotation Xrotation Yrotation
												End site
												{
													OFFSET 0.00000 0.00000 0.00000
												}
											}
										}
									}
									JOINT LeftHandPinky1
									{
										OFFSET 11.11390 0.00000 -6.03719
										CHANNELS 3 Zrotation Xrotation Yrotation
										JOINT LeftHandPinky2
										{
											OFFSET 4.52789 0.00000 0.00000
											CHANNELS 3 Zrotation Xrotation Yrotation
											JOINT LeftHandPinky3
											{
												OFFSET 2.46976 0.00000 0.00000
												CHANNELS 3 Zrotation Xrotation Yrotation
												End site
												{
													OFFSET 0.00000 0.00000 0.00000
												}
											}
										}
									}
								}
							}
						}
					}
					JOINT pCube4
					{
						OFFSET 0.00000 10.91090 1.10792
						CHANNELS 3 Zrotation Xrotation Yrotation
						End site
						{
							OFFSET 0.00000 0.00000 0.00000
						}
					}
				}
			}
		}
	}
	JOINT RightUpLeg
	{
		OFFSET -9.98441 0.00000 0.00000
		CHANNELS 3 Zrotation Xrotation Yrotation
		JOINT RightLeg
		{
			OFFSET 0.00000 -42.11790 0.00000
			CHANNELS 3 Zrotation Xrotation Yrotation
			JOINT RightFoot
			{
				OFFSET 0.00000 -45.00020 -0.00001
				CHANNELS 3 Zrotation Xrotation Yrotation
				JOINT RightForeFoot
				{
					OFFSET 0.00000 -3.74820 0.00000
					CHANNELS 3 Zrotation Xrotation Yrotation
					JOINT RightToeBase
					{
						OFFSET 0.00000 0.06325 14.43120
						CHANNELS 3 Zrotation Xrotation Yrotation
						End site
						{
							OFFSET 0.00000 0.00000 0.00000
						}
					}
				}
			}
		}
	}
	JOINT LeftUpLeg
	{
		OFFSET 9.98441 0.00000 0.00000
		CHANNELS 3 Zrotation Xrotation Yrotation
		JOINT LeftLeg
		{
			OFFSET 0.00000 -42.11800 0.00000
			CHANNELS 3 Zrotation Xrotation Yrotation
			JOINT LeftFoot
			{
				OFFSET 0.00000 -45.00070 0.00000
				CHANNELS 3 Zrotation Xrotation Yrotation
				JOINT LeftForeFoot
				{
					OFFSET 0.00000 -3.74824 0.00000
					CHANNELS 3 Zrotation Xrotation Yrotation
					JOINT LeftToeBase
					{
						OFFSET 0.00000 0.06325 14.43110
						CHANNELS 3 Zrotation Xrotation Yrotation
						End site
						{
							OFFSET 0.00000 0.00000 0.00000
						}
					}
				}
			}
		}
	}
}
MOTION
Frames: 4
Frame Time: 0.050000
-0.027879005271283182 -0.02973184516303621 -0.019403069594806487 -0.0373962972183484 0.04291086115307667 -0.01749820451005533 1.3630368893891238 2.3793786071830563 -1.4836492224814726 -0.523086113120205 3.9293737663074495 0.3150089644078097 -0.7176608727014836 -1.4356922839466553 1.8816075675478339 -0.8467973796492697 -0.6596084655227913 -0.23464388573600709 0.0017561158263220723 12.395998615536554 -0.7785479366272989 0.504455491644806 -1.1731842454733368 -3.0289825218488713 0.8748768094866876 -17.128502322599587 -0.31628771151505 -4.545065857200209 1.8548314301613225 -16.131307552067486 72.55141543059054 15.267590110558935 6.897674838556585 0.38680031190354325 1.4174978055681753 65.51583516871403 27.2907260077925 -0.2738406478991043 -5.722626653724502 4.487266515029018 -0.07856662389793721 -1.5897805202810047 -0.022543356277658917 0.011848357298444946 -56.242941544102 0.022151759312686113 0.003955905658009894 -56.27448806749008 -38.80045269695095 0.039593664179885975 -0.029569106995555518 0.03493458172894404 0.010581523700586352 -0.028759513341475203 0.03125770038944724 -0.009339774636926965 -0.00862247613137982 -36.70391765420101 -0.03617064472621314 0.008433183869864103 0.0032155764483820758 0.022246734627548122 0.019052629156511583 0.01585927487053088 0.04898214309502684 -0.047462296878956325 -19.77061711688257 0.029223584130765246 0.00509029782280401 0.027162642007559655 -0.03990273563665996 -0.037282877646022373 -0.0017274389579521078 -0.043548911323286435 -0.017565023434943587 24.04968594237203 0.013444549323890397 -0.03264523188832301 28.85530470362214 0.037015199982597675 0.01111870664298709 28.83678350445869 -0.03441123955401163 -0.04443667100214474 4.320440996228487 1.3130769902068382 14.939624492298504 -79.11371555574554 22.163313664279002 -2.065430756385487 9.482184389367804 3.978470505694644 -36.80772258280503 -28.523499724359052 9.231144346048358 -5.106292712285594 -0.4878199770122171 0.09977818797098054 -8.170922197930752 0.006302213364084259 0.003345795599515635 44.583736764641 0.011855085322600989 0.03187242007506526 44.61653164613547 12.45518846282084 0.0018965900625391209 -0.02722191328286786 -0.005060386692385379 0.045010741979318085 0.00013185851915706038 -0.014998636636712437 -0.021885279116954676 -0.011072687433933404 11.06970195668736 -0.03390434359870662 -0.025061088388271525 0.029555678713048445 -0.033875489630205015 0.03716661253829718 -0.01163766664563888 -0.008993344762139104 -0.023479095599392777 4.785821851905114 -0.01680920981641669 0.013225973717195732 -0.030885493720001888 0.0037396086052072335 -0.02220684561817844 0.03052956587563671 0.0018237828510395408 -0.02614109784431555 -5.559940235076138 0.03131786055744493 0.02723401561002344 -6.698571160482425 -0.04631727116811518 0.0037499895005004393 -6.712759618219268 -0.021632218566206108 -0.03929661004771954 0.021933752823415184 0.003218442480747739 0.03411875200445983 8.019204955329123 3.525913433482764 -19.228505423098866 -0.04577208263461668 10.383094222533545 0.05527184773247604 -5.573777920317537 -15.647338440970898 3.229456156364082 -0.04949531685495704 0.008599134770247647 0.02245278259995272 0.04665757667566389 4.648196563004559 0.006626072775831083 12.474990325299748 -8.276035101341026 6.87907555615296 -0.0013304844498490717 46.4157631143734 0.022892833835528092 -4.300535973443431 -14.725580935726306 -3.840405724458811 0.027487074722272117 -0.03962577563818133 0.013113192999712643 -0.02896345107575651 -10.701586788418167 -0.04116780703461558 
0.02679673528751474 -0.028957407348807918 0.010651649320048237 0.04948149325158417 -0.0023272921164531556 0.008750017395086759 1.8099044539683111 2.5228204473870814 -1.5583831604217377 -0.5595948622854733 3.913316362487285 0.3487360429663652 -0.7211462420153164 -1.3733226555619114 1.6747782802617164 -0.7811524364073715 -0.5911021690703002 -0.16679801720891152 0.06609353295722306 12.326654921038159 -0.8513604589393526 0.5298985530525461 -1.0874571355920604 -3.0188430136921127 1.0203223609436258 -17.16594296480406 -0.2931545792382177 -5.129158117651348 2.0928919500768957 -16.45582091345491 74.44755268684712 13.918826152924858 6.020609780307779 -1.6314409960374703 0.823964145444935 61.895772540156706 27.033679945546968 -0.28144690546675016 -5.653880372302547 4.519796010363522 -0.1479568966235107 -1.574614076437139 0.03277726505140635 -0.03557616723002456 -56.18970195574635 -0.030747128149850016 0.024812002678190663 -56.23842887723832 -38.738734346651825 0.011482910105752045 -0.0017354897951209435 0.02294262690456769 -0.040850599647524084 0.025532021682492793 0.03190265211082413 0.046701767311329016 -0.013791987346531887 -36.666658292163724 0.02654756882534903 0.020086741996677596 -0.008243380363412671 -0.034516969050145736 0.037489559984590914 -0.036050712296838656 -0.0030305017816125027 -0.036362567729044046 -19.805438053490104 -0.03315294268532092 0.02748059054296991 7.122422473167498e-06 0.022760224492327803 -0.018774345908025535 0.008949188297092882 -0.04926716349780519 0.02875463104429846 24.028989802585563 -0.029592557670614705 -0.024703247224602407 28.849626004626412 -0.02011015105585949 0.031636393083609826 28.820488903420237 0.037516298874021366 -0.01464089131051614 4.731558312423074 1.4524371691197921 14.913971557006349 -79.32801810334269 21.768158905075953 -2.5483918732073603 9.434750494533256 3.4654108335578186 -36.21915412744427 -27.733870133628805 8.068135500995652 -4.053739864514745 -0.464923324422138 0.05491190152847357 -8.132882839251032 0.019776825810800577 -0.024883618104039586 44.572859967845304 -0.049520593655970925 -0.02028491652377789 44.56760684980589 12.413283202926213 -0.01722497134058228 0.03653156855654491 -0.02583988060452536 -0.005921754342875084 0.034448092384980936 -0.010974816602039672 0.01638679024690068 -0.007447530894931024 11.083099651538562 -0.03035589492519745 -0.034956017069812016 0.04629110326981785 -0.02210548546861528 -0.0032506372122281346 0.0118987824530358 0.017193239725495475 -0.012290275011589098 4.725293031827746 0.03124629350043035 0.016427139362663108 -0.016268653860926924 -0.030779749757656266 -0.014757774011550982 0.011095904687844705 0.014602679324976586 0.01034709834126365 -5.63558188150594 0.025992865777467865 -0.02331013627557798 -6.715969248896513 -0.0019947797845929257 0.02238999991817116 -6.6943515530622415 0.013725646059196012 0.0036586540806386324 -0.03391226827419038 -0.0479683887375859 -0.02474036673477244 8.005182977263948 3.4855147078762405 -19.20794760466938 0.009011956965682046 10.425846152520716 0.0017771402194051295 -5.652812286475401 -15.622800101500493 3.1573597475047106 0.019467805951777575 -0.025907173885342288 -0.0004458897444575474 0.022289229231757756 4.704712130593341 -0.028841829828449263 12.421849952907587 -8.254990247225633 6.908898262531448 0.014451105678568141 46.38259976655054 0.002511256762095909 -4.335546169721515 -14.728323774997744 -3.8660431903373196 0.009794594214126926 0.04341277361523806 0.012120309892013289 0.005535356341019403 -10.783796534078991 -0.013015503969581833 
-0.01859211696967986 -0.03590464198386074 -0.00826220207308935 -0.03709491065436824 -0.024324930414403482 -0.010737891280984714 2.2766217762373384 2.6487071703353298 -1.6720998462801175 -0.5402313032221252 3.8728709073734806 0.3925463103346787 -0.6894909476991231 -1.379488161010975 1.6404387572319359 -0.8030474810295766 -0.5823202772734698 -0.21016698894191796 0.06989881071306951 12.36213580232734 -0.9945747660845385 0.49729396250482816 -1.0759485842989605 -3.084569808048394 1.0376887978813283 -17.16784418324888 -0.3025883119390842 -5.795831297579225 2.2974147405936085 -16.776402973827977 76.21303779161671 13.054281698805392 5.58780283363606 -3.5427144133702693 0.19602360156754586 59.61067817556172 26.695897762567792 -0.31859423100504636 -5.797770956239263 4.5314504248907825 -0.12462749837238951 -1.6083426362289681 -0.0026291938087662117 0.03566426262588554 -56.250359837100355 -0.0020644201132487363 0.032263592855727025 -56.203938052645924 -38.75439498645129 -0.002217598427619089 0.012967175987448487 0.029248720140758005 0.02348206321594667 0.034999639075316405 0.029798309440593987 -0.013552706836731595 0.03679376151793164 -36.74163648318516 -0.03049068089685037 0.010871840636818252 0.04959674021085844 0.02453912305316358 0.009210908421876248 0.0016104070727358108 0.025201881083423618 0.03621300229497699 -19.770922655410594 -0.007917332317291676 -0.0032970707428622687 -0.002509855463018776 -0.010953002740497179 -0.026835693156695848 -0.038904415376730665 -0.0018790203637367852 -0.024179147372142957 24.05934785421612 -0.021148081715629242 -0.016852010337834976 28.84617095620189 0.04990632113831432 0.0484672276388796 28.86877740822053 -0.024289048446115197 -0.030171787701768798 5.35429445950964 1.5325603288102811 14.977977178147714 -79.62609264968391 21.151260456378616 -3.229855843202956 9.327964042807954 3.614711417020142 -35.774785848314714 -27.028686201860033 7.038604821202418 -3.195182861133073 -0.47387614927272703 0.041412829909037926 -8.138297466163477 0.038610986774793764 0.024103306205913774 44.593149216324676 0.020841683181451416 -0.008166089392121694 44.534516781945776 12.433966103972612 0.0010087769085467858 0.038087754326165825 -0.007210032325442516 -0.04985432334708107 0.014993732992826372 0.02688333770458211 -0.010120007608084666 0.02053101755451294 11.146669534712906 -0.04920571576119877 0.014085628689572001 0.02818549729701682 -0.0168669439894687 0.001966769911945385 -0.033442535119208604 0.042752159533754004 -0.041540410156222035 4.805631536606412 -0.04217986574695531 0.017816537466635897 0.034399272947522486 -0.0277100431743243 -0.016881399173824155 0.03815009360509555 0.012251993447366799 0.021645577931842252 -5.574282815966793 0.04556316554423248 -0.03409160555741747 -6.718315666702379 0.02324896742376382 0.033508854080428 -6.766635224816468 0.025392461135087988 -0.011974213396051338 0.0027716050942181293 0.0030734203711306305 0.03600231817846928 7.996800764605185 3.520172628020264 -19.18730716622789 -0.00013411133769535748 10.357683246640937 -0.03361234032313097 -5.614666486394674 -15.663569782622755 3.1745349628455184 -0.041852672681333185 -0.02467005953576176 -0.040574010772823126 -0.00024396800522987727 4.65956395375484 0.030260227528582175 12.417058141430477 -8.196692265128863 6.87424869438867 0.021375360056500113 46.33290424529174 -0.02672201012107127 -4.30004005709447 -14.72087979398945 -3.8328405880433465 0.044331737248918396 0.03924252274519223 0.01798815333324552 -0.03305898670709616 -10.714513447123371 0.026524224618100008 
-0.017454433533467147 0.019895050912682954 -0.013342533427900986 -0.016222085085315776 0.041466853566417106 -0.02176496728148927 2.925602478718498 2.7855781862096167 -1.7474695031104646 -0.5300190877901276 3.748462185904546 0.389420548453675 -0.6457405780080948 -1.355468605403178 1.5917821440633964 -0.7536445981611105 -0.5348931154201366 -0.2449789060856871 0.16396286258789958 12.423734956504296 -1.1901939318700399 0.6001405578642185 -1.0084640457468732 -3.24974904696337 1.1746088388920344 -17.195034461354282 -0.33846587212231644 -6.607527814354512 2.538981650699183 -17.135100391062526 77.69633615662083 12.445616503678592 5.21180262368504 -5.821641178097381 0.26560285232993713 57.51800575764243 26.148040048489477 -0.33417122031311386 -5.619866139249276 4.567081125832253 -0.1619512317462247 -1.6004048050788955 0.03457151695955033 -0.04118165068448868 -56.2666476007512 -0.023335262109458528 -0.02663442042995287 -56.26919047095345 -38.76762783660523 -0.03763882240465173 0.013972409031966278 0.020643824374596262 0.01866414626941515 -0.0035244452984535763 -0.04960029489506486 0.007466997803447793 0.024236613614550453 -36.66395350576572 -0.028849729174160017 -0.00669727768950327 0.01820550838663714 -0.040039447233013656 0.00030154911762648523 -0.021939745410141098 -0.03369813276700989 0.042030496829998445 -19.750556110536884 -0.000794665036111749 -0.007745268193665133 0.04189117097689472 0.0039300147730245965 -0.007428837272445587 -0.015177287241994923 -0.038239378192235246 0.01418853776533297 24.044998100731117 -0.02713841391732466 0.013683649919262996 28.83536906013237 0.03286048968156757 0.04350430970886423 28.841255032559815 0.011728282566153403 -0.02726024159496187 5.956036154693607 1.6633479352362903 15.134591628321049 -79.81405759780415 20.701452529174954 -3.691625504743567 9.244577325905025 4.181047252805133 -35.758931587824435 -26.507599924323607 6.072248676219747 -2.4080719413570058 -0.48474641413955505 0.11117449081951053 -8.10741433546129 0.009682162389924958 -0.004785408915435951 44.60613230920042 0.03735522082905873 -0.04294724512896999 44.5224291630312 12.505593078020581 -0.0034167661662717094 -0.04168536651516845 0.0104236559648117 0.012401722631925021 0.023094375823285586 0.015568638220752799 0.00245596180354412 0.023211390806033638 11.106492656055748 0.03640107479971415 -0.04796558401316706 0.02349572642223211 -0.0410111502419442 -0.030947568511168064 -0.0034728263445431232 -0.04917074542663827 0.029307099659346553 4.7679845727182135 0.022917791942499474 0.005040295617433775 -0.03045708552971377 -0.02136782028294026 0.04936297161182442 -0.011286046341303091 -0.013011403484401385 -0.010324519080261928 -5.6479515249984615 0.03590269605922442 -0.03627947788136598 -6.737675059934064 0.005862688314624344 -0.042432829162126845 -6.738955085924694 0.009001864141342821 0.03823645699800531 0.01395029180654253 0.013675729830188986 -0.02831284785958739 8.079881066872998 3.4604606038616246 -19.189798937284046 -0.03314225789803737 10.365163793157416 0.019581733161011413 -5.625265440238142 -15.623847215321707 3.225339135185589 0.04507657445843761 0.006384572593355223 -0.03313539727276332 -0.02918140308024943 4.677427499264046 -0.03767381162943675 12.446080086441897 -8.222581060372336 6.868431585147779 0.04276324195349597 46.39949157322884 -0.021527620898611568 -4.366303903076439 -14.72496190268911 -3.8208860858682123 0.047791136628435926 0.04191490373545041 0.01269791019207589 -0.031502852009416445 -10.774991508823073 -0.018091134454215004 
